HIERARCHY
ROOT SpineBase
{
  OFFSET 0.000000 0.000000 0.000000
  CHANNELS 6 Xposition Yposition Zposition Zrotation Xrotation Yrotation
  JOINT SpineMid
  {
    OFFSET -0.000000 32.126547 0.000000
    CHANNELS 3 Zrotation Xrotation Yrotation
    JOINT SpineShoulder
    {
      OFFSET 0.167669 23.759992 -0.683542
      CHANNELS 3 Zrotation Xrotation Yrotation
      JOINT Neck
      {
        OFFSET 0.125558 7.831594 -0.542713
        CHANNELS 3 Zrotation Xrotation Yrotation
        JOINT Head
        {
          OFFSET 6.185859 11.971970 2.735651
          CHANNELS 3 Zrotation Xrotation Yrotation
          End Site
          {
            OFFSET 0 0 0
          }
        }
      }
      JOINT ShoulderLeft
      {
        OFFSET -6.930972 -3.273015 -12.267373
        CHANNELS 3 Zrotation Xrotation Yrotation
        JOINT ElbowLeft
        {
          OFFSET -5.150821 -21.045007 -8.501167
          CHANNELS 3 Zrotation Xrotation Yrotation
          JOINT WristLeft
          {
            OFFSET -0.055510 -26.276139 -3.421942
            CHANNELS 3 Zrotation Xrotation Yrotation
            JOINT HandLeft
            {
              OFFSET 0.481859 -7.711320 0.682585
              CHANNELS 3 Zrotation Xrotation Yrotation
              JOINT HandTipLeft
              {
                OFFSET -0.341133 -6.280516 -0.007005
                CHANNELS 3 Zrotation Xrotation Yrotation
                End Site
                {
                  OFFSET 0 0 0
                }
              }
              JOINT ThumbLeft
              {
                OFFSET 2.976238 -0.977338 0.137908
                CHANNELS 3 Zrotation Xrotation Yrotation
                End Site
                {
                  OFFSET 0 0 0
                }
              }
            }
          }
        }
      }
      JOINT ShoulderRight
      {
        OFFSET 6.890863 -6.437014 19.424022
        CHANNELS 3 Zrotation Xrotation Yrotation
        JOINT ElbowRight
        {
          OFFSET 0.084959 -21.373909 3.182880
          CHANNELS 3 Zrotation Xrotation Yrotation
          JOINT WristRight
          {
            OFFSET 4.240477 -28.397756 -7.355615
            CHANNELS 3 Zrotation Xrotation Yrotation
            JOINT HandRight
            {
              OFFSET 0.531379 -6.650154 -0.286780
              CHANNELS 3 Zrotation Xrotation Yrotation
              JOINT HandTipRight
              {
                OFFSET -0.071561 -4.725135 -2.909589
                CHANNELS 3 Zrotation Xrotation Yrotation
                End Site
                {
                  OFFSET 0 0 0
                }
              }
              JOINT ThumbRight
              {
                OFFSET -0.902215 0.251081 -4.201664
                CHANNELS 3 Zrotation Xrotation Yrotation
                End Site
                {
                  OFFSET 0 0 0
                }
              }
            }
          }
        }
      }
    }
  }
  JOINT HipLeft
  {
    OFFSET -2.084706 1.968288 -9.688443
    CHANNELS 3 Zrotation Xrotation Yrotation
    JOINT KneeLeft
    {
      OFFSET -9.934006 -31.253707 -4.052178
      CHANNELS 3 Zrotation Xrotation Yrotation
      JOINT AnkleLeft
      {
        OFFSET -10.516738 -33.157919 2.209165
        CHANNELS 3 Zrotation Xrotation Yrotation
        JOINT FootLeft
        {
          OFFSET 11.789210 -4.180031 -9.840200
          CHANNELS 3 Zrotation Xrotation Yrotation
          End Site
          {
            OFFSET 0 0 0
          }
        }
      }
    }
  }
  JOINT HipRight
  {
    OFFSET 3.736578 -0.518746 2.754142
    CHANNELS 3 Zrotation Xrotation Yrotation
    JOINT KneeRight
    {
      OFFSET -4.496787 -35.759358 0.643214
      CHANNELS 3 Zrotation Xrotation Yrotation
      JOINT AnkleRight
      {
        OFFSET -5.388693 -28.855731 2.835261
        CHANNELS 3 Zrotation Xrotation Yrotation
        JOINT FootRight
        {
          OFFSET 10.193001 -4.620431 -7.447085
          CHANNELS 3 Zrotation Xrotation Yrotation
          End Site
          {
            OFFSET 0 0 0
          }
        }
      }
    }
  }
}
MOTION
Frames: 5
Frame Time: 0.033333
-70.806248 69.551545 319.363792 -0.871370 1.075816 -59.375094 0.053925 -0.153643 59.346617 -0.049841 -0.030237 -0.051783 -2.259262 -3.381935 1.973474 0.000000 0.000000 0.000000 -2.229563 -2.561440 1.710380 11.280790 3.874190 -3.168026 3.010275 1.341365 2.185744 4.889284 0.818373 -1.449162 0.000000 0.000000 0.000000 0.000000 0.000000 0.000000 1.832919 2.020851 0.219268 -2.550567 -0.596683 0.589654 2.813999 23.536631 1.083250 3.209780 -32.075333 -2.808935 0.000000 0.000000 0.000000 0.000000 0.000000 0.000000 -0.258505 0.117563 59.071853 4.162052 1.480895 -0.361981 -7.222471 -5.357710 3.174072 0.000000 0.000000 0.000000 -2.136826 -0.742671 58.999400 -3.024208 -0.607713 -0.641424 4.700882 0.162546 6.885295 0.000000 0.000000 0.000000
-70.745353 69.554909 319.362793 -0.980630 1.186247 -58.963153 -0.003371 -0.186672 58.930244 -0.057523 -0.011425 -0.060620 -1.818374 -3.941780 2.130604 0.000000 0.000000 0.000000 -2.210740 -2.744816 1.781021 10.530540 3.923085 -3.080468 1.428299 -0.928608 1.858632 7.153090 5.667499 -1.953782 0.000000 0.000000 0.000000 0.000000 0.000000 0.000000 1.909512 2.793570 0.223786 -0.388863 2.982858 0.782917 3.654361 32.225504 1.157345 -4.376861 -44.708262 -5.101346 0.000000 0.000000 0.000000 0.000000 0.000000 0.000000 -0.185447 0.105925 58.659406 4.297260 1.496294 -0.372236 -10.221596 -7.473004 4.828987 0.000000 0.000000 0.000000 -2.083359 -0.786079 58.581798 -2.881915 -0.658781 -0.630163 4.609253 0.303935 7.264222 0.000000 0.000000 0.000000
-70.683811 69.566212 319.404174 -1.068203 1.292910 -58.474188 -0.094379 -0.257866 58.435260 -0.074112 0.004474 -0.071329 -1.401516 -4.450002 2.279687 0.000000 0.000000 0.000000 -2.025733 -2.819384 1.783403 8.846608 3.763082 -2.752178 2.157084 -0.090014 1.548635 5.282451 4.726248 -1.637328 0.000000 0.000000 0.000000 0.000000 0.000000 0.000000 2.079036 3.574193 0.240120 2.333390 8.272473 0.908036 -1.622786 34.435856 2.070349 -4.114842 -50.822765 -5.958690 0.000000 0.000000 0.000000 0.000000 0.000000 0.000000 -0.165254 0.080658 58.160966 4.567638 1.482093 -0.364589 -16.221306 -13.842140 -3.688568 0.000000 0.000000 0.000000 -2.035268 -0.852747 58.087678 -2.799937 -0.707858 -0.625619 4.571072 0.475670 7.697320 0.000000 0.000000 0.000000
-70.562910 69.592994 319.465263 -1.096378 1.327095 -57.665849 -0.247976 -0.304562 57.621349 -0.138875 0.026037 -0.083981 -1.065922 -4.985303 2.461816 0.000000 0.000000 0.000000 -2.514631 -3.547892 2.172840 8.863678 4.851694 -3.138728 4.559181 0.238654 1.702460 3.559448 4.249827 -1.812801 0.000000 0.000000 0.000000 0.000000 0.000000 0.000000 2.228886 4.671348 0.254656 4.337896 16.248474 1.395436 -9.972764 27.393686 1.499272 9.718074 -43.207486 -0.855294 0.000000 0.000000 0.000000 0.000000 0.000000 0.000000 -0.242671 0.162582 57.310010 4.844890 1.375104 -0.301904 -23.255407 -19.128962 -13.489309 0.000000 0.000000 0.000000 -2.220147 -1.005320 57.257782 -2.635979 -0.821726 -0.619876 4.568811 0.688177 8.268253 0.000000 0.000000 0.000000
-70.572619 69.667398 319.515008 -1.370234 1.414611 -56.454616 -0.207254 -0.192570 56.410784 -0.150611 0.052462 -0.092462 -0.907423 -5.207346 2.519770 0.000000 0.000000 0.000000 -3.463050 -4.574164 2.761353 10.498617 6.515188 -4.050877 6.254285 -1.318956 2.134029 5.806582 6.906492 -2.609656 0.000000 0.000000 0.000000 0.000000 0.000000 0.000000 2.200091 6.023753 0.251329 4.944708 26.365931 2.528285 -14.527478 21.982456 -1.488343 24.090591 -34.067338 3.349992 0.000000 0.000000 0.000000 0.000000 0.000000 0.000000 0.200522 0.794672 56.025823 4.641747 1.133250 -0.134579 -28.486472 -21.687292 -21.066629 0.000000 0.000000 0.000000 -2.032116 -0.914623 56.061409 -2.657482 -0.684086 -0.646293 4.568689 0.817892 8.963235 0.000000 0.000000 0.000000
